<?xml version="1.0" standalone="no"?>
<!DOCTYPE svg PUBLIC "-//W3C//DTD SVG 20010904//EN"
 "http://www.w3.org/TR/2001/REC-SVG-20010904/DTD/svg10.dtd">
<svg version="1.0" xmlns="http://www.w3.org/2000/svg"
 width="183.000000pt" height="183.000000pt" viewBox="0 0 183.000000 183.000000"
 preserveAspectRatio="xMidYMid meet">
<metadata>
Created by potrace 1.14, written by Peter Selinger 2001-2017
</metadata>
<g transform="translate(0.000000,183.000000) scale(0.100000,-0.100000)"
fill="#000000" stroke="none">
<path d="M880 1818 c-25 -10 -274 -101 -455 -166 -55 -19 -105 -43 -112 -51
-9 -13 -101 -170 -149 -256 -10 -18 -55 -96 -104 -180 -9 -16 -27 -46 -38 -66
-13 -21 -20 -45 -17 -60 7 -35 25 -135 35 -199 10 -64 41 -242 54 -305 2 -11
7 -39 11 -62 5 -35 16 -50 58 -85 86 -72 99 -83 111 -93 6 -6 54 -46 106 -89
52 -44 97 -82 100 -85 3 -4 29 -26 59 -50 l53 -45 312 -1 c171 0 320 3 330 8
11 5 35 23 54 41 60 53 80 70 109 93 26 20 42 33 103 86 14 12 50 42 80 67 30
25 66 55 80 67 14 13 28 23 31 23 4 0 9 6 12 13 3 9 -118 12 -587 12 l-591 0
-3 23 c-2 14 -8 20 -15 16 -9 -5 -9 -4 -1 5 8 9 9 24 3 44 -4 18 -10 50 -14
72 -3 23 -8 52 -11 65 -5 24 -11 62 -13 88 -1 8 -6 10 -13 6 -10 -5 -10 -4 -2
5 8 9 9 23 3 44 -4 18 -10 48 -13 67 -3 19 -8 51 -11 71 -8 47 2 69 111 250
19 31 34 60 34 63 0 4 10 20 21 35 13 17 18 34 14 42 -5 7 -4 10 2 6 9 -6 50
52 45 66 -1 4 2 7 7 7 5 0 12 9 16 19 3 11 21 37 39 58 29 31 36 35 49 24 14
-11 16 -9 14 8 -1 16 -6 20 -22 15 -16 -4 -17 -3 -5 5 8 6 11 11 6 11 -5 0 0
10 12 23 12 13 20 26 16 29 -3 4 4 12 16 18 12 6 19 14 16 17 -3 3 0 15 6 27
7 11 11 24 10 29 -1 4 2 7 8 7 6 0 10 -4 10 -8 0 -16 27 -9 39 10 6 10 7 18 2
18 -6 0 -13 -5 -16 -10 -4 -6 -11 -8 -16 -4 -6 4 -6 10 0 18 6 7 7 17 3 21 -4
5 -1 4 7 0 11 -6 13 -4 8 9 -4 10 -3 15 3 11 6 -3 11 -1 11 4 3 21 4 26 12 38
11 17 -4 22 -33 11z m-230 -1428 c0 -5 -2 -10 -4 -10 -3 0 -8 5 -11 10 -3 6
-1 10 4 10 6 0 11 -4 11 -10z"/>
<path d="M924 1808 c-5 -7 -9 -19 -11 -27 -1 -8 -12 -28 -24 -45 -19 -27 -20
-29 -2 -13 11 9 22 17 25 17 5 0 4 -24 -2 -40 -1 -3 -2 -8 -1 -12 1 -8 -3 -9
-41 -12 -15 -1 -22 -7 -19 -16 2 -8 4 -21 4 -27 0 -16 17 -17 17 -2 0 6 9 1
20 -12 23 -29 26 -18 4 16 -9 14 -20 23 -24 20 -5 -3 -11 -2 -14 3 -2 4 6 8
19 8 13 0 21 -5 19 -10 -3 -6 1 -2 10 8 8 10 13 23 10 28 -3 5 0 7 8 6 7 -2
12 3 11 10 -2 6 3 12 10 12 6 1 1 10 -12 20 -13 11 -19 20 -14 20 5 0 15 -6
22 -12 12 -11 13 -10 7 6 -6 16 -4 17 9 6 12 -10 13 -15 4 -20 -8 -6 -8 -9 2
-13 10 -4 10 -6 2 -6 -7 -1 -13 -5 -13 -11 0 -12 22 -9 33 5 5 6 7 3 4 -7 -3
-9 1 -19 9 -22 9 -3 13 -10 10 -15 -4 -5 -1 -11 4 -13 10 -3 17 -22 19 -52 1
-5 7 -3 15 3 11 9 16 9 22 0 4 -7 3 -9 -3 -6 -6 4 -19 -3 -29 -15 -19 -21 -19
-21 4 -9 23 12 23 12 11 -11 -12 -22 -11 -22 7 -8 10 8 16 10 11 5 -4 -4 1
-17 10 -27 13 -14 14 -21 5 -30 -16 -16 -15 -31 0 -22 17 11 68 12 62 2 -3 -5
-9 -6 -13 -4 -11 7 -34 -11 -37 -29 -1 -9 3 -14 9 -12 7 3 11 10 9 17 -2 11 0
10 13 0 16 -13 16 -15 -2 -21 -10 -4 -14 -8 -9 -8 4 -1 0 -13 -9 -28 -16 -24
-16 -26 0 -20 9 4 19 7 21 7 3 0 3 4 0 9 -4 5 3 7 13 4 13 -3 18 -10 14 -21
-4 -10 -2 -13 5 -8 7 4 12 2 12 -5 0 -9 3 -9 14 0 11 9 16 9 22 0 4 -7 3 -9
-4 -5 -12 7 -35 -27 -25 -38 11 -11 24 -7 17 6 -4 7 -3 8 5 4 6 -4 9 -11 7
-15 -6 -10 31 -51 45 -51 6 0 8 -3 5 -8 -7 -12 22 -45 41 -47 10 0 24 -4 31
-9 6 -4 12 -2 12 3 0 11 -13 15 -37 12 -7 -1 -10 5 -7 13 6 14 27 12 50 -5 6
-5 14 -6 17 -2 4 3 7 2 7 -4 0 -6 8 -10 17 -9 10 0 19 -7 21 -18 3 -11 0 -16
-7 -11 -6 3 -8 11 -5 17 4 7 2 8 -5 4 -6 -4 -8 -12 -5 -18 4 -6 1 -8 -7 -6 -8
3 -13 11 -11 17 1 6 -2 11 -8 11 -13 0 -13 -17 0 -25 6 -3 10 -11 10 -17 0 -7
-6 -6 -15 2 -10 9 -15 9 -15 1 0 -6 5 -11 11 -11 5 0 7 -6 3 -12 -4 -7 4 -3
18 10 l26 23 -3 -32 c-1 -18 -8 -35 -14 -37 -8 -3 -6 -8 6 -17 14 -11 15 -17
5 -39 -10 -22 -9 -27 8 -36 23 -13 40 -13 20 0 -8 5 -11 12 -7 16 3 4 13 1 22
-6 8 -7 15 -8 15 -2 0 13 -29 24 -41 16 -6 -3 -7 4 -4 19 4 14 2 28 -4 32 -6
3 -9 11 -6 16 7 11 26 12 24 2 -5 -28 2 -33 25 -18 23 15 25 15 40 -7 9 -12
16 -18 16 -14 0 5 -7 18 -17 28 -9 10 -11 18 -5 18 6 0 18 -10 26 -22 9 -12
18 -19 21 -16 4 3 -5 17 -18 30 -24 24 -25 24 -48 7 -26 -20 -44 -25 -34 -10
3 6 -2 14 -11 19 -14 8 -15 13 -3 45 8 24 16 33 21 24 4 -6 1 -22 -7 -33 -12
-19 -12 -23 0 -28 19 -7 47 3 39 15 -12 20 19 7 42 -18 14 -15 22 -20 18 -10
-5 14 -2 16 12 10 16 -6 17 -5 4 9 -8 9 -16 12 -18 7 -2 -5 -15 -1 -29 8 -24
16 -26 16 -39 -2 -8 -10 -17 -16 -20 -12 -4 4 -1 13 5 21 7 8 10 19 7 24 -3 6
1 15 9 22 12 10 13 8 10 -10 -3 -16 0 -20 10 -16 8 3 15 1 15 -5 0 -6 5 -7 10
-4 6 3 10 1 10 -4 0 -6 3 -10 8 -10 16 3 72 -14 72 -22 0 -5 -6 -7 -12 -5 -7
1 -10 1 -5 -1 14 -8 -4 -22 -20 -16 -13 5 -15 2 -10 -12 8 -19 -10 -48 -24
-39 -5 3 -9 0 -9 -6 0 -7 7 -10 15 -6 17 6 19 -2 5 -24 -8 -13 -10 -13 -10 -1
0 8 -11 1 -23 -17 -13 -17 -27 -28 -31 -24 -4 4 -2 -5 5 -20 7 -16 16 -28 21
-28 13 0 59 52 52 59 -4 3 -9 0 -11 -7 -8 -20 -34 -43 -44 -37 -13 9 -11 25 4
21 6 -1 9 -1 5 1 -14 8 -8 25 6 20 9 -4 13 -1 10 6 -6 16 32 19 44 4 8 -11
-28 -79 -42 -77 -21 1 -26 -1 -21 -10 3 -6 -1 -10 -10 -10 -9 0 -13 4 -10 10
4 6 -1 7 -11 3 -15 -5 -15 -7 0 -15 9 -5 23 -8 32 -6 9 2 19 -3 21 -10 3 -8
-1 -10 -14 -5 -17 6 -17 6 -1 -10 17 -18 33 -23 24 -8 -3 4 1 17 9 27 13 17
16 18 41 4 15 -8 30 -21 32 -29 3 -9 -6 -7 -27 8 -17 12 -31 18 -31 12 0 -22
-2 -26 -14 -41 -8 -8 -12 -25 -10 -38 3 -16 0 -21 -8 -16 -7 4 -5 -2 5 -13 9
-11 14 -23 10 -28 -5 -4 -2 -5 5 -1 8 5 12 0 12 -12 0 -11 7 -25 15 -32 8 -7
13 -16 10 -20 -2 -4 4 -16 15 -27 10 -12 16 -24 12 -29 -4 -4 -1 -3 7 1 11 6
13 4 8 -7 -3 -9 3 -25 13 -36 10 -11 16 -24 12 -28 -4 -5 0 -3 9 4 14 10 18
10 23 -4 4 -9 4 -19 1 -22 -3 -3 -5 0 -5 7 0 7 -5 9 -10 6 -6 -4 -4 -12 6 -22
12 -13 18 -13 27 -3 7 7 7 10 2 7 -6 -3 -11 2 -11 12 0 10 6 18 12 18 7 0 10
-6 7 -13 -4 -12 14 -30 23 -21 3 3 6 16 8 29 1 13 6 30 11 37 5 10 4 12 -3 7
-17 -10 -15 0 4 30 16 23 16 24 -2 17 -18 -6 -18 -5 -3 13 9 10 15 29 14 42
-1 12 3 22 9 22 6 0 4 5 -4 10 -13 9 -13 10 0 10 12 0 12 2 2 9 -11 7 -11 9 1
14 8 3 13 17 12 34 -1 15 2 36 8 47 6 13 6 16 -2 12 -6 -4 -11 -3 -11 2 0 6 6
12 14 15 8 3 12 16 11 31 -2 14 1 29 6 32 6 3 5 11 -2 20 -9 11 -8 14 2 14 8
0 6 6 -7 16 -10 8 -13 12 -5 8 7 -3 17 -1 21 6 10 16 5 80 -7 89 -4 3 -14 18
-22 33 -8 15 -19 25 -24 21 -6 -3 -7 -1 -3 6 4 6 -5 33 -20 59 -16 26 -36 61
-45 77 -10 17 -22 29 -29 27 -6 -1 -9 2 -6 7 5 8 -68 157 -83 171 -4 3 -15 22
-26 42 -10 20 -22 35 -26 32 -4 -2 -6 4 -5 13 1 12 -26 26 -104 55 -58 22
-114 43 -125 47 -60 24 -92 34 -112 35 -11 0 -20 4 -18 7 2 3 -40 21 -93 41
-53 19 -104 38 -113 42 -10 4 -20 2 -25 -6z m11 -17 c3 -5 2 -12 -3 -15 -5 -3
-9 1 -9 9 0 17 3 19 12 6z m130 -90 c3 -5 2 -12 -3 -15 -5 -3 -9 1 -9 9 0 17
3 19 12 6z m56 -24 c-10 -9 -11 -8 -5 6 3 10 9 15 12 12 3 -3 0 -11 -7 -18z
m-18 -42 c-7 -21 -12 -19 -10 4 0 11 5 18 9 15 4 -3 5 -11 1 -19z m227 -70 c0
-2 -9 -3 -19 -2 -11 0 -18 5 -15 9 4 6 34 0 34 -7z m-180 -15 c0 -5 -2 -10 -4
-10 -3 0 -8 5 -11 10 -3 6 -1 10 4 10 6 0 11 -4 11 -10z m240 0 c0 -5 -2 -10
-4 -10 -3 0 -8 5 -11 10 -3 6 -1 10 4 10 6 0 11 -4 11 -10z m-180 -14 c0 -3
-4 -8 -10 -11 -5 -3 -10 -1 -10 4 0 6 5 11 10 11 6 0 10 -2 10 -4z m54 -4 c3
-5 -1 -9 -9 -9 -8 0 -12 4 -9 9 3 4 7 8 9 8 2 0 6 -4 9 -8z m182 -4 c3 -4 -1
-5 -10 -4 -8 1 -18 5 -22 8 -3 4 1 5 10 4 8 -1 18 -5 22 -8z m82 -23 c-3 -3
-9 2 -12 12 -6 14 -5 15 5 6 7 -7 10 -15 7 -18z m-181 -5 c-1 -21 -10 -18 -13
5 -1 8 2 15 6 15 5 0 8 -9 7 -20z m-137 -15 c0 -2 -9 -3 -19 -2 -11 0 -18 5
-15 9 4 6 34 0 34 -7z m235 5 c3 -5 1 -10 -4 -10 -6 0 -11 5 -11 10 0 6 2 10
4 10 3 0 8 -4 11 -10z m65 4 c0 -8 -19 -13 -24 -6 -3 5 1 9 9 9 8 0 15 -2 15
-3z m-120 -24 c0 -5 -5 -10 -11 -10 -5 0 -7 5 -4 10 3 6 8 10 11 10 2 0 4 -4
4 -10z m164 -18 c3 -5 -1 -9 -9 -9 -8 0 -12 4 -9 9 3 4 7 8 9 8 2 0 6 -4 9 -8z
m-384 -27 c0 -7 -30 -13 -34 -7 -3 4 4 9 15 9 10 1 19 0 19 -2z m216 -20 c-1
-8 -5 -17 -8 -21 -5 -4 -4 16 1 34 3 9 9 -1 7 -13z m57 -30 c-3 -9 -8 -14 -10
-11 -3 3 -2 9 2 15 9 16 15 13 8 -4z m144 0 c0 -8 -4 -12 -9 -9 -5 3 -6 10 -3
15 9 13 12 11 12 -6z m-203 -43 c2 -4 -5 -9 -17 -9 -17 -2 -19 0 -7 7 18 12
18 12 24 2z m119 -17 c-7 -21 -12 -19 -10 4 0 11 5 18 9 15 4 -3 5 -11 1 -19z
m121 17 c3 -5 -1 -9 -9 -9 -8 0 -12 4 -9 9 3 4 7 8 9 8 2 0 6 -4 9 -8z m-199
-22 c3 -5 1 -10 -4 -10 -6 0 -11 5 -11 10 0 6 2 10 4 10 3 0 8 -4 11 -10z
m-135 -66 c0 -14 -3 -14 -15 -4 -8 7 -15 14 -15 16 0 2 7 4 15 4 8 0 15 -7 15
-16z m220 10 c0 -8 -19 -13 -24 -6 -3 5 1 9 9 9 8 0 15 -2 15 -3z m117 -16 c2
-17 0 -19 -7 -8 -5 8 -6 18 -4 22 8 12 10 10 11 -14z m63 -22 c0 -3 -4 -8 -10
-11 -5 -3 -10 -1 -10 4 0 6 5 11 10 11 6 0 10 -2 10 -4z m-99 -29 c-6 -8 -7
-18 -3 -22 4 -5 1 -5 -6 -1 -10 6 -10 11 -1 22 6 8 14 14 16 14 3 0 0 -6 -6
-13z m29 -42 c-7 -8 -11 -15 -9 -16 2 0 15 -3 28 -5 35 -6 36 -10 13 -38 -10
-14 -23 -22 -27 -18 -4 4 -1 -6 6 -21 7 -15 18 -26 25 -23 15 6 40 -21 29 -32
-4 -4 -10 -1 -12 6 -3 6 -9 12 -15 12 -6 0 -6 -6 2 -15 8 -9 25 -13 49 -11 25
3 38 0 38 -9 0 -17 -67 -13 -94 6 -13 9 -20 19 -15 23 4 4 -6 2 -21 -5 -25
-12 -30 -10 -55 14 -14 15 -21 27 -15 27 7 0 18 -9 25 -19 11 -16 17 -17 35
-8 19 11 20 14 7 31 -10 14 -14 16 -14 5 0 -12 -2 -12 -11 1 -9 13 -10 13 -6
0 2 -8 10 -14 16 -12 6 1 11 -2 11 -8 0 -13 -23 -13 -37 1 -17 17 -4 51 18 44
11 -4 19 -2 19 5 0 6 -4 8 -10 5 -5 -3 -10 -2 -10 4 0 18 19 22 28 6 7 -14 10
-14 21 -2 9 12 9 17 0 23 -8 4 -9 3 -5 -4 4 -7 3 -12 -3 -12 -5 0 -13 5 -16
11 -9 13 -55 -28 -55 -48 0 -8 -5 -11 -10 -8 -8 5 -7 11 0 20 7 8 8 20 4 26
-4 7 -3 9 3 6 5 -4 23 7 38 23 30 31 47 41 25 15z m95 -65 c7 0 18 -7 25 -15
10 -12 10 -18 0 -30 -8 -9 -8 -15 -2 -15 6 0 13 6 16 13 4 6 4 2 2 -11 -2 -12
0 -20 5 -16 5 3 9 11 9 19 0 7 3 15 8 18 4 2 1 2 -7 0 -8 -2 -11 2 -7 12 3 9
2 14 -3 11 -5 -3 -15 2 -22 11 -12 15 -12 16 6 9 11 -5 25 -9 32 -9 7 0 9 -5
6 -10 -4 -6 0 -8 9 -5 11 5 14 -1 13 -20 0 -15 -6 -28 -13 -28 -23 -3 -24 -4
-12 -19 7 -8 9 -15 4 -15 -4 0 -3 -5 4 -12 8 -8 9 -15 1 -25 -7 -7 -8 -13 -4
-13 4 0 2 -7 -5 -15 -10 -12 -10 -15 1 -15 8 0 5 -6 -7 -14 -10 -8 -16 -18
-12 -22 4 -4 3 -13 -3 -21 -9 -10 -8 -13 2 -13 11 0 11 -2 -1 -10 -13 -9 -13
-10 0 -10 13 0 13 -1 0 -10 -13 -9 -13 -10 0 -10 13 -1 13 -2 -1 -10 -11 -7
-15 -22 -14 -54 2 -29 -3 -50 -11 -57 -10 -8 -11 -15 -4 -24 7 -9 6 -16 -5
-25 -13 -11 -13 -15 -3 -21 10 -7 10 -9 -2 -9 -12 0 -13 -2 -1 -9 10 -7 11
-13 2 -27 -11 -19 -11 -19 -9 0 2 11 -4 20 -14 22 -10 2 -24 5 -32 7 -22 5
-46 28 -40 39 3 5 -6 23 -22 39 -15 16 -24 29 -19 29 4 0 1 8 -7 18 -8 9 -14
24 -13 32 0 8 -7 21 -17 28 -15 11 -16 16 -5 32 6 11 15 20 20 20 4 0 6 -4 3
-9 -3 -5 2 -15 11 -22 11 -10 14 -10 9 -2 -5 9 -2 11 11 7 15 -5 16 -4 3 5
-13 9 -13 11 0 11 13 0 13 1 0 10 -13 8 -13 10 -1 10 11 0 9 4 -4 14 -19 14
-40 12 -31 -3 3 -4 -4 -12 -15 -19 -22 -14 -23 3 -1 26 7 8 10 18 7 23 -10 15
13 10 30 -7 13 -13 19 -14 28 -5 9 10 6 18 -16 37 -30 26 -52 31 -62 14 -4 -6
-11 -8 -16 -5 -11 7 -12 26 -1 24 18 -3 33 2 28 9 -11 19 22 47 53 46 51 -2
53 -3 46 -23 -4 -13 0 -23 11 -29 10 -6 13 -12 6 -16 -6 -3 -18 4 -26 16 -9
12 -16 17 -16 11 0 -7 4 -14 10 -18 5 -3 7 -12 3 -20 -6 -17 12 -21 22 -5 4 6
11 7 17 4 7 -5 8 -2 3 7 -8 12 -6 12 8 0 11 -9 17 -10 17 -2 0 6 -11 17 -25
23 -14 6 -25 15 -25 20 0 12 14 10 28 -4 9 -9 12 -9 12 -1 0 7 9 11 20 10 11
-1 20 -5 20 -10 0 -5 6 -4 14 2 24 20 12 46 -19 43 -17 -2 -24 1 -20 8 3 6 12
7 18 3 8 -4 7 -1 -1 9 -9 11 -10 18 -2 23 5 3 10 12 10 18 0 7 -7 3 -15 -7 -8
-10 -12 -23 -9 -27 3 -5 0 -9 -6 -9 -6 0 -13 7 -17 16 -3 8 -12 13 -19 10 -17
-7 -26 7 -18 28 4 11 13 15 28 11 14 -4 17 -3 8 3 -8 5 -10 16 -6 27 7 17 8
17 17 -3 6 -12 16 -22 22 -22z m31 28 c4 -7 4 -10 -1 -6 -4 4 -15 2 -24 -5
-14 -11 -14 -10 -2 6 16 20 18 21 27 5z m-160 -283 c1 -8 -1 -17 -5 -19 -4 -3
-7 6 -7 19 0 25 8 25 12 0z"/>
<path d="M1691 1061 c-8 -5 -9 -11 -3 -15 5 -3 12 1 16 9 6 17 6 18 -13 6z"/>
<path d="M1765 983 c4 -28 -24 -54 -45 -43 -22 12 -34 1 -19 -16 14 -17 4 -33
-19 -29 -9 1 -22 -2 -29 -7 -7 -5 -18 -6 -24 -2 -8 4 -9 3 -5 -4 4 -7 4 -18
-1 -24 -4 -7 -8 -26 -8 -41 0 -15 -6 -32 -14 -37 -10 -6 -12 -13 -5 -22 5 -8
-3 -1 -17 16 -17 19 -28 25 -33 18 -7 -11 -1 -16 17 -13 7 1 8 -4 11 -37 0
-11 7 -26 15 -35 7 -10 10 -17 5 -17 -4 0 5 -13 20 -29 16 -16 25 -34 22 -39
-6 -10 9 -25 29 -28 6 -1 15 -3 21 -5 7 -2 13 1 14 6 1 6 8 17 16 27 11 11 12
18 4 23 -8 5 -7 12 3 23 8 10 13 35 12 60 -1 24 2 45 6 47 3 3 5 18 4 35 -1
17 1 33 6 36 5 3 7 10 3 15 -3 5 0 16 6 24 7 8 9 15 5 15 -4 0 -2 7 5 15 7 8
9 15 5 15 -4 0 -2 6 4 14 8 10 9 16 1 21 -6 3 -8 10 -5 15 3 5 1 11 -4 14 -5
4 -8 -2 -6 -11z m5 -38 c-7 -8 -9 -15 -5 -15 4 0 2 -7 -5 -15 -7 -8 -9 -15 -5
-15 4 0 2 -7 -5 -15 -6 -8 -9 -19 -6 -24 4 -5 2 -12 -3 -15 -5 -3 -7 -19 -6
-36 1 -17 -1 -32 -5 -35 -4 -2 -6 -25 -5 -49 2 -29 -3 -50 -11 -57 -10 -8 -11
-15 -4 -24 7 -9 6 -16 -5 -25 -8 -7 -12 -17 -9 -22 4 -6 -4 -4 -17 3 -13 7
-26 13 -29 13 -3 1 -4 5 -2 10 2 5 -9 22 -24 37 -15 16 -24 29 -20 29 5 0 2 7
-5 16 -19 23 -22 49 -4 34 8 -7 15 -7 19 -1 4 5 2 13 -4 16 -8 5 -7 12 2 22 7
9 13 28 13 43 0 30 30 65 55 65 9 0 24 6 34 14 15 13 15 15 -1 28 -17 13 -16
13 3 4 17 -8 25 -6 39 9 21 23 33 27 15 5z"/>
<path d="M1721 895 c-17 -20 -31 -30 -31 -23 0 9 -3 9 -10 -2 -6 -10 -10 -11
-10 -2 0 8 -6 6 -18 -5 -20 -20 -25 -46 -8 -40 6 3 10 11 8 18 -2 9 3 8 16 -4
10 -9 23 -14 27 -10 5 5 3 -1 -5 -12 -14 -19 -14 -19 5 -5 19 14 19 14 6 -2
-7 -10 -17 -15 -22 -12 -5 3 -9 0 -9 -6 0 -7 7 -9 18 -5 13 5 14 3 5 -6 -14
-14 -36 -2 -29 18 4 9 2 11 -6 7 -7 -4 -8 -3 -4 4 5 8 1 10 -10 5 -11 -4 -13
-8 -6 -11 7 -2 12 -8 12 -13 0 -6 -4 -8 -9 -5 -5 3 -14 -1 -20 -8 -9 -10 -9
-16 -1 -21 15 -9 -8 -37 -24 -28 -6 3 -2 -3 8 -15 11 -12 15 -22 11 -22 -5 0
4 -13 19 -29 16 -16 26 -33 23 -39 -8 -12 25 -12 41 1 8 7 9 13 2 22 -7 9 -6
16 4 24 8 7 13 28 11 57 -1 24 1 47 5 49 4 3 6 18 5 35 -1 17 1 33 6 36 5 3 7
10 3 15 -3 5 0 16 6 24 7 8 9 15 5 15 -4 0 -2 7 5 15 26 31 1 13 -29 -20z m9
-10 c-6 -8 -9 -19 -6 -24 4 -5 2 -12 -4 -16 -6 -4 -7 -12 -3 -18 5 -8 2 -8 -9
0 -8 7 -17 11 -20 8 -3 -3 -11 1 -17 9 -11 13 -9 15 7 11 14 -2 26 5 37 21 8
13 18 24 21 24 4 0 1 -7 -6 -15z m-14 -87 c-1 -7 -4 -17 -7 -23 -3 -5 -5 -29
-4 -53 1 -25 -4 -47 -12 -53 -9 -8 -10 -15 -3 -24 8 -9 8 -15 0 -20 -9 -5 -65
49 -65 64 0 3 -4 11 -8 17 -4 7 0 17 8 24 12 10 13 16 4 26 -6 8 -9 15 -5 15
23 5 32 4 44 -4 12 -9 42 7 40 21 -1 11 2 22 6 22 2 0 3 -6 2 -12z"/>
<path d="M1640 756 c7 -10 6 -17 -5 -26 -11 -9 -12 -16 -5 -25 5 -6 8 -14 5
-17 -3 -2 10 -18 27 -34 18 -16 27 -22 20 -13 -9 12 -9 18 1 28 13 13 18 93 5
85 -4 -3 -14 -2 -20 3 -23 14 -40 13 -28 -1z m32 -33 c-16 -12 -16 -13 1 -7
13 5 16 2 14 -15 -5 -33 -22 -45 -37 -26 -7 8 -9 15 -5 15 4 0 2 6 -4 14 -9
10 -8 16 4 26 8 7 12 17 9 22 -3 5 3 4 14 -3 19 -12 19 -14 4 -26z"/>
<path d="M1651 727 c-6 -8 -7 -17 -3 -21 4 -4 7 -12 7 -17 0 -17 18 -14 21 3
1 10 -1 17 -4 17 -19 -3 -23 3 -12 16 7 8 10 15 7 15 -2 0 -10 -6 -16 -13z"/>
<path d="M1565 959 c-8 -12 24 -51 35 -44 5 3 10 2 13 -2 2 -5 2 -1 -1 7 -3 8
-4 23 -4 34 1 18 1 18 -13 0 -7 -11 -17 -15 -21 -11 -5 4 -2 12 6 17 9 6 10
10 3 10 -6 0 -15 -5 -18 -11z"/>
<path d="M920 1668 c-14 -24 -16 -35 -8 -45 12 -15 21 -10 24 12 1 9 -3 13 -9
9 -7 -3 -5 0 3 8 15 13 26 48 15 48 -3 0 -14 -14 -25 -32z"/>
<path d="M964 1692 c3 -6 3 -12 -1 -15 -5 -2 -3 -2 4 -1 7 2 10 -5 8 -17 -2
-10 0 -19 6 -19 5 0 8 -6 7 -12 -2 -7 3 -12 10 -10 6 1 12 -2 12 -8 0 -5 -4
-10 -9 -10 -12 0 -8 -27 6 -41 6 -6 9 -17 6 -24 -3 -9 4 -13 21 -11 15 2 29
-1 33 -7 3 -6 2 -7 -3 -4 -6 3 -16 2 -24 -3 -9 -5 -20 -4 -29 3 -11 10 -13 9
-9 -3 3 -8 15 -14 27 -12 19 2 21 -2 16 -20 -5 -19 -4 -20 5 -8 9 13 10 13 8
-2 -2 -9 6 -24 17 -33 19 -15 19 -15 1 -13 -10 2 -21 -3 -23 -10 -3 -7 1 -11
7 -10 7 2 14 -5 15 -15 3 -15 1 -16 -11 -6 -17 14 -18 0 -1 -22 21 -27 79 -51
76 -31 -1 4 -1 14 0 22 1 13 2 13 11 0 5 -8 12 -11 17 -7 12 12 -20 27 -33 16
-8 -7 -15 -6 -20 2 -4 7 -3 9 3 6 6 -4 14 0 17 9 6 15 4 15 -18 0 -14 -9 -27
-16 -30 -16 -4 0 -1 26 4 40 1 3 2 8 1 13 0 4 5 7 12 7 8 0 7 3 -3 10 -18 11
-20 30 -6 50 9 13 9 13 -6 2 -19 -15 -37 3 -20 20 16 16 -4 49 -25 41 -12 -5
-15 -2 -10 10 4 11 2 14 -9 10 -16 -6 -20 12 -4 22 7 4 7 13 0 26 -6 10 -8 19
-4 19 4 0 0 8 -9 18 -10 10 -15 21 -12 23 2 3 -5 11 -17 18 -11 7 -17 8 -14 3z
m41 -51 c3 -5 2 -12 -3 -15 -5 -3 -9 1 -9 9 0 17 3 19 12 6z m108 -295 c4 -10
1 -13 -8 -9 -8 3 -12 9 -9 14 7 12 11 11 17 -5z"/>
<path d="M834 1643 c3 -6 2 -15 -4 -18 -8 -5 -7 -12 2 -23 12 -14 10 -14 -12
-2 -14 7 -22 9 -17 5 4 -5 -3 -19 -15 -32 -20 -21 -20 -23 -4 -17 14 5 17 4
12 -4 -4 -7 -2 -12 4 -12 7 0 9 8 5 19 -3 11 -1 22 4 26 7 4 8 -1 4 -12 -6
-16 -5 -16 10 -4 9 7 17 10 17 5 0 -5 4 -2 9 5 6 10 5 23 -1 35 -6 12 -10 23
-9 24 2 2 -1 7 -5 10 -4 4 -4 2 0 -5z"/>
<path d="M945 1631 c3 -5 -5 -17 -17 -25 -20 -14 -24 -14 -39 0 -17 15 -27 10
-23 -13 1 -7 2 -18 3 -25 0 -7 8 -3 16 8 15 19 15 19 8 -1 -6 -17 -4 -18 9 -8
8 7 18 10 21 6 4 -3 7 1 7 10 0 10 5 17 10 17 6 0 9 -3 9 -7 -3 -17 1 -33 9
-32 19 3 29 -2 29 -16 0 -8 -3 -12 -7 -10 -4 3 -15 -4 -25 -15 -20 -22 -7 -28
14 -7 9 8 12 8 7 0 -3 -6 -3 -13 1 -16 5 -2 2 -2 -5 0 -8 1 -10 -2 -6 -9 4 -6
3 -8 -3 -5 -5 3 -10 0 -10 -8 0 -8 4 -15 9 -15 4 0 8 5 8 10 0 6 5 10 11 10 5
0 8 -4 4 -9 -3 -5 0 -13 6 -17 8 -5 9 -3 4 6 -6 9 -4 11 5 5 9 -6 11 -4 5 5
-5 8 -4 11 3 6 6 -4 8 -14 5 -23 -4 -9 -2 -14 3 -10 6 3 16 2 23 -2 9 -6 10
-11 2 -15 -6 -4 -11 -3 -11 2 0 5 -6 9 -13 9 -8 0 -14 -6 -14 -13 0 -7 6 -10
14 -7 16 6 17 -9 1 -26 -11 -11 -10 -13 5 -7 10 3 20 6 23 6 2 0 1 6 -2 14 -3
8 0 17 6 21 8 5 6 12 -5 25 -9 10 -14 23 -10 29 3 6 0 9 -8 5 -8 -3 -20 2 -27
11 -11 13 -11 21 -2 36 11 17 8 22 -20 40 -21 13 -25 18 -11 14 16 -4 21 -2
19 12 -2 9 -8 19 -14 21 -7 2 -10 8 -6 13 3 5 -2 9 -11 9 -9 0 -14 -4 -10 -9z
m-60 -30 c3 -5 2 -12 -3 -15 -5 -3 -9 1 -9 9 0 17 3 19 12 6z"/>
<path d="M824 1559 c-3 -5 -4 -9 -2 -10 2 0 10 -2 18 -4 8 -1 21 -4 29 -6 7
-2 16 2 18 9 3 7 1 12 -4 11 -4 -1 -10 0 -13 1 -19 7 -41 7 -46 -1z"/>
<path d="M904 1559 c-3 -5 -2 -9 3 -9 11 -1 -29 -24 -44 -26 -7 -1 -13 1 -13
6 0 6 -16 7 -55 1 -5 -1 -3 -6 5 -11 13 -9 13 -11 0 -19 -9 -6 -19 -6 -27 1
-9 7 -17 7 -28 -2 -23 -19 -18 -39 13 -46 15 -4 33 -11 40 -17 6 -5 12 -6 12
-2 0 4 8 1 17 -6 11 -10 14 -10 9 -1 -4 7 -2 12 5 12 8 0 9 4 0 13 -8 10 -7
17 1 25 7 7 8 12 3 12 -14 0 -37 -16 -36 -24 3 -20 0 -26 -10 -20 -8 4 -7 9 2
15 9 6 3 8 -17 4 -22 -3 -34 0 -37 9 -6 16 1 26 17 26 6 0 4 -5 -4 -10 -8 -5
-13 -10 -10 -11 3 0 13 -2 23 -4 9 -2 17 2 17 8 0 5 3 7 7 4 3 -4 12 2 20 13
8 11 20 20 26 20 8 0 8 -3 -1 -9 -11 -7 -10 -9 3 -14 9 -4 13 -3 10 3 -3 6 1
7 9 4 10 -4 16 -1 16 7 0 11 3 11 11 -1 9 -12 10 -11 4 5 -6 20 -6 20 13 0 17
-18 18 -21 3 -30 -24 -15 -24 -40 0 -42 16 -2 18 1 9 12 -8 10 -8 15 1 21 7 4
9 3 6 -3 -4 -6 0 -16 8 -23 11 -9 14 -8 12 9 -1 12 -4 21 -8 21 -12 0 -4 28
14 48 18 20 22 33 10 31 -5 -1 -10 0 -13 1 -19 7 -41 7 -46 -1z m30 -11 c-3
-4 0 -8 6 -8 6 0 8 -5 5 -11 -4 -5 -12 -8 -18 -6 -15 5 -17 34 -1 34 7 0 11
-4 8 -9z"/>
<path d="M861 1481 c-15 -12 -20 -21 -13 -25 6 -4 9 -13 6 -20 -3 -8 6 -17 23
-24 69 -27 149 -53 157 -52 5 1 13 -4 17 -12 5 -8 9 -9 9 -2 0 15 -25 36 -33
28 -3 -3 -11 -3 -17 1 -8 5 -8 11 1 21 10 12 9 13 -6 8 -13 -5 -16 -3 -13 7 3
8 1 22 -4 32 -7 15 -12 16 -24 6 -8 -6 -14 -16 -14 -21 0 -6 6 -6 14 1 11 9
16 9 22 0 5 -8 3 -9 -5 -4 -10 6 -11 3 -1 -15 6 -12 9 -24 6 -28 -3 -3 -6 -1
-6 5 0 6 -8 10 -17 9 -10 0 -17 5 -15 12 1 6 -3 12 -9 12 -5 0 -7 5 -3 12 4 7
3 8 -5 4 -6 -4 -9 -11 -7 -15 3 -4 -5 -7 -17 -8 -12 0 -16 1 -9 4 6 3 12 9 12
14 0 6 -4 8 -9 5 -5 -3 -14 0 -20 8 -9 11 -9 15 1 19 9 4 9 6 -2 6 -13 1 -13
2 0 11 8 5 12 11 10 14 -3 2 -16 -3 -29 -13z m24 -51 c3 -5 2 -10 -4 -10 -5 0
-13 5 -16 10 -3 6 -2 10 4 10 5 0 13 -4 16 -10z"/>
<path d="M955 1410 c-3 -5 -1 -10 4 -10 6 0 11 5 11 10 0 6 -2 10 -4 10 -3 0
-8 -4 -11 -10z"/>
<path d="M1150 1320 c6 -11 15 -18 21 -15 13 9 11 13 -12 25 -19 11 -20 10 -9
-10z"/>
<path d="M1186 1302 c-3 -5 1 -9 9 -9 8 0 12 4 9 9 -3 4 -7 8 -9 8 -2 0 -6 -4
-9 -8z"/>
<path d="M1286 1189 c2 -4 12 -5 22 -2 14 6 15 4 5 -8 -10 -12 -8 -20 12 -42
24 -25 55 -28 55 -5 0 7 -5 6 -13 -1 -11 -8 -19 -5 -35 14 -12 14 -17 25 -11
25 20 0 2 25 -19 26 -12 1 -19 -2 -16 -7z"/>
<path d="M1354 1086 c11 -9 15 -20 10 -28 -6 -10 -4 -10 9 1 10 8 16 15 15 16
-2 1 -14 8 -28 14 -23 11 -23 11 -6 -3z"/>
<path d="M1461 1074 c11 -13 9 -15 -17 -9 -23 4 -25 3 -9 -4 26 -11 52 -41 36
-41 -6 0 -11 -6 -11 -12 1 -7 10 -2 20 11 11 13 20 28 19 35 0 7 -2 7 -6 -1
-2 -7 -9 -13 -14 -13 -6 0 -9 6 -8 13 3 24 -1 37 -12 37 -8 0 -7 -5 2 -16z"/>
<path d="M1430 1000 c-13 -8 -12 -10 3 -10 9 0 17 5 17 10 0 12 -1 12 -20 0z"/>
<path d="M1415 969 c4 -5 13 -9 21 -9 8 0 14 -5 14 -11 0 -5 -5 -7 -12 -3 -7
4 -8 3 -4 -4 4 -6 13 -9 21 -6 19 8 -1 39 -26 41 -11 1 -17 -2 -14 -8z"/>
<path d="M1467 879 c12 -12 24 -21 27 -18 2 2 -8 13 -22 23 l-27 19 22 -24z"/>
<path d="M1497 830 c3 -11 7 -20 9 -20 2 0 4 9 4 20 0 11 -4 20 -9 20 -5 0 -7
-9 -4 -20z"/>
<path d="M1688 516 c-16 -11 -15 -14 3 -26 20 -15 27 -36 7 -24 -7 5 -8 3 -3
-6 6 -10 11 -9 21 5 15 20 9 39 -9 29 -7 -3 -4 1 6 9 23 19 -1 31 -25 13z"/>
<path d="M1515 470 c3 -5 8 -10 11 -10 2 0 4 5 4 10 0 6 -5 10 -11 10 -5 0 -7
-4 -4 -10z"/>
</g>
</svg>
